<svg width="718" height="217" viewBox="0 0 718 217" fill="none" xmlns="http://www.w3.org/2000/svg">
<path d="M288.578 20.3115H285.67C285.454 19.2288 285.062 18.2285 284.495 17.3107C283.938 16.3826 283.237 15.5731 282.391 14.8822C281.545 14.1913 280.586 13.655 279.514 13.2735C278.441 12.8919 277.281 12.7012 276.033 12.7012C274.033 12.7012 272.208 13.2219 270.558 14.2635C268.918 15.305 267.603 16.8363 266.613 18.8575C265.634 20.8684 265.144 23.333 265.144 26.2513C265.144 29.1903 265.634 31.6652 266.613 33.6761C267.603 35.687 268.918 37.2132 270.558 38.2547C272.208 39.2859 274.033 39.8015 276.033 39.8015C277.281 39.8015 278.441 39.6108 279.514 39.2292C280.586 38.8477 281.545 38.3166 282.391 37.636C283.237 36.9451 283.938 36.1356 284.495 35.2075C285.062 34.2794 285.454 33.2739 285.67 32.1911H288.578C288.32 33.6452 287.836 35.0012 287.124 36.2593C286.423 37.5071 285.526 38.6002 284.433 39.5386C283.35 40.477 282.102 41.2092 280.689 41.7351C279.277 42.261 277.725 42.524 276.033 42.524C273.373 42.524 271.011 41.8588 268.949 40.5285C266.887 39.188 265.268 37.3009 264.092 34.8672C262.927 32.4335 262.344 29.5616 262.344 26.2513C262.344 22.9411 262.927 20.0692 264.092 17.6355C265.268 15.2018 266.887 13.3199 268.949 11.9896C271.011 10.649 273.373 9.97873 276.033 9.97873C277.725 9.97873 279.277 10.2417 280.689 10.7676C282.102 11.2832 283.35 12.0154 284.433 12.9641C285.526 13.9025 286.423 14.9956 287.124 16.2434C287.836 17.4912 288.32 18.8472 288.578 20.3115Z" fill="#1C7F7E"/>
<path d="M297.554 10.4118V42.0909H294.8V10.4118H297.554Z" fill="#1C7F7E"/>
<path d="M304.87 42.0909V18.3316H307.639V42.0909H304.87ZM304.994 15.0369L308.954 8.01428H312.218L307.469 15.0369H304.994Z" fill="#1C7F7E"/>
<path d="M317.674 27.2413V42.0909H314.921V18.3316H317.597V22.0594H317.844C318.401 20.8426 319.267 19.8681 320.443 19.136C321.629 18.3935 323.093 18.0222 324.836 18.0222C326.434 18.0222 327.837 18.3574 329.043 19.0277C330.26 19.6877 331.204 20.6621 331.874 21.9512C332.555 23.2402 332.895 24.8231 332.895 26.6999V42.0909H330.141V26.8701C330.141 24.9211 329.595 23.3794 328.502 22.2451C327.419 21.1107 325.965 20.5435 324.14 20.5435C322.892 20.5435 321.783 20.8117 320.814 21.3479C319.845 21.8841 319.076 22.6576 318.509 23.6681C317.952 24.6684 317.674 25.8595 317.674 27.2413Z" fill="#1C7F7E"/>
<path d="M340.176 42.0909V18.3316H342.945V42.0909H340.176ZM341.584 14.248C341.017 14.248 340.532 14.0572 340.13 13.6757C339.728 13.2838 339.527 12.8146 339.527 12.268C339.527 11.7215 339.728 11.2575 340.13 10.8759C340.532 10.484 341.017 10.2881 341.584 10.2881C342.151 10.2881 342.636 10.484 343.038 10.8759C343.44 11.2575 343.641 11.7215 343.641 12.268C343.641 12.8146 343.44 13.2838 343.038 13.6757C342.636 14.0572 342.151 14.248 341.584 14.248Z" fill="#1C7F7E"/>
<path d="M359.508 42.5858C357.384 42.5858 355.533 42.0548 353.955 40.9926C352.387 39.9305 351.171 38.4765 350.304 36.6306C349.438 34.7847 349.005 32.681 349.005 30.3195C349.005 27.9374 349.443 25.8182 350.32 23.962C351.207 22.1058 352.434 20.6518 354.001 19.6C355.569 18.5378 357.389 18.0068 359.462 18.0068C361.05 18.0068 362.488 18.3161 363.777 18.9349C365.066 19.5433 366.128 20.4044 366.964 21.5181C367.809 22.6215 368.34 23.9105 368.557 25.3851H365.773C365.484 24.0446 364.788 22.8999 363.684 21.9512C362.591 20.9921 361.199 20.5126 359.508 20.5126C357.992 20.5126 356.651 20.9251 355.486 21.7501C354.321 22.5647 353.408 23.7042 352.748 25.1686C352.099 26.6226 351.774 28.3086 351.774 30.2267C351.774 32.1551 352.093 33.8617 352.733 35.3467C353.372 36.8213 354.269 37.9763 355.424 38.8116C356.59 39.6469 357.951 40.0645 359.508 40.0645C360.56 40.0645 361.519 39.8686 362.385 39.4767C363.262 39.0745 363.994 38.5074 364.582 37.7752C365.18 37.043 365.582 36.1717 365.788 35.1611H368.572C368.366 36.5945 367.856 37.8732 367.041 38.9972C366.237 40.1109 365.19 40.9874 363.901 41.6268C362.622 42.2661 361.158 42.5858 359.508 42.5858Z" fill="#1C7F7E"/>
<path d="M381.109 42.6322C379.676 42.6322 378.366 42.3538 377.18 41.797C375.995 41.2298 375.051 40.4151 374.35 39.353C373.648 38.2805 373.298 36.9812 373.298 35.455C373.298 34.2794 373.52 33.2894 373.963 32.4851C374.406 31.6807 375.035 31.0207 375.85 30.5051C376.665 29.9895 377.629 29.5822 378.743 29.2831C379.856 28.9841 381.084 28.7521 382.424 28.5871C383.754 28.4221 384.878 28.2777 385.796 28.1539C386.724 28.0302 387.431 27.8343 387.915 27.5662C388.4 27.298 388.642 26.8649 388.642 26.2668V25.71C388.642 24.091 388.158 22.8174 387.188 21.8893C386.229 20.9509 384.848 20.4817 383.043 20.4817C381.331 20.4817 379.934 20.8581 378.851 21.6109C377.779 22.3637 377.026 23.2505 376.593 24.2714L373.978 23.3279C374.515 22.0285 375.257 20.9921 376.206 20.2187C377.155 19.435 378.217 18.873 379.392 18.5327C380.568 18.1821 381.759 18.0068 382.966 18.0068C383.873 18.0068 384.817 18.1253 385.796 18.3625C386.786 18.5997 387.704 19.0122 388.55 19.6C389.395 20.1775 390.081 20.987 390.607 22.0285C391.133 23.0597 391.396 24.3694 391.396 25.9575V42.0909H388.642V38.3321H388.472C388.142 39.0333 387.652 39.7139 387.003 40.3739C386.353 41.0338 385.538 41.5753 384.559 41.9981C383.579 42.4209 382.429 42.6322 381.109 42.6322ZM381.481 40.1109C382.945 40.1109 384.213 39.7861 385.286 39.1364C386.358 38.4868 387.183 37.6257 387.761 36.5532C388.349 35.4704 388.642 34.2794 388.642 32.98V29.5461C388.436 29.742 388.091 29.9173 387.606 30.072C387.132 30.2267 386.58 30.3659 385.951 30.4896C385.332 30.6031 384.713 30.7011 384.095 30.7836C383.476 30.8661 382.919 30.9382 382.424 31.0001C381.084 31.1651 379.939 31.4229 378.99 31.7735C378.042 32.1241 377.314 32.6088 376.809 33.2275C376.304 33.8359 376.051 34.6197 376.051 35.5787C376.051 37.0224 376.567 38.1413 377.598 38.9353C378.629 39.7191 379.923 40.1109 381.481 40.1109Z" fill="#1C7F7E"/>
<path d="M461.982 105.263H457.695L449.123 80.6169H401.259L393.52 105.263H389.115L422.095 3.46367C422.492 2.27304 422.77 1.51898 422.929 1.20148C423.326 0.566473 423.961 0.169576 424.834 0.0108239C425.707 -0.0685518 426.382 0.28864 426.858 1.0824C427.334 1.79678 427.771 2.86834 428.168 4.2971L461.982 105.263ZM447.694 76.3306L424.953 6.79746L402.688 76.3306H447.694Z" fill="#1C7F7E"/>
<path d="M522.141 84.1889C522.141 89.9833 519.839 95.103 515.235 99.5481C510.631 103.993 505.234 106.216 499.042 106.216C492.137 106.216 486.104 103.834 480.945 99.0718C475.865 94.2299 473.325 88.4355 473.325 81.6885V37.8731H477.492V80.736C477.492 86.5304 479.516 91.4914 483.564 95.619C487.612 99.7465 492.534 101.81 498.328 101.81C503.884 101.81 508.567 99.8656 512.377 95.9762C516.267 92.0074 518.212 87.0464 518.212 81.0932V37.8731H522.141V84.1889Z" fill="#1C7F7E"/>
<path d="M557.185 42.3975C556.947 42.3181 556.392 42.2785 555.518 42.2785C553.217 42.2785 551.113 42.596 549.208 43.231C546.351 44.1835 544.128 45.6519 542.54 47.6363C541.032 49.6207 539.961 51.5654 539.326 53.4704C538.77 55.2961 538.492 57.3598 538.492 59.6617V105.263H534.206V58.233C534.206 55.8517 534.722 53.3117 535.754 50.6129C536.786 47.9141 538.373 45.5329 540.516 43.4691C542.739 41.4053 545.596 39.9368 549.089 39.0637C552.661 38.1112 555.36 37.7143 557.185 37.8731V42.3975Z" fill="#1C7F7E"/>
<path d="M638.274 72.4016H573.741C573.741 80.4185 576.757 87.2845 582.79 92.9996C588.902 98.6353 596.125 101.453 604.46 101.453C611.524 101.453 617.636 99.429 622.795 95.3809C627.955 91.3327 631.447 85.8557 633.273 78.95H637.321C635.495 86.967 631.646 93.4361 625.772 98.3574C619.977 103.199 612.992 105.62 604.817 105.62C595.133 105.62 586.798 102.207 579.813 95.3809C572.908 88.4752 569.455 80.2201 569.455 70.6156C569.455 61.408 572.828 53.4704 579.575 46.8029C586.322 40.1353 594.339 36.8015 603.626 36.8015C613.469 36.8015 621.684 40.294 628.272 47.2791C634.94 54.1848 638.274 62.5589 638.274 72.4016ZM633.749 68.2343C633.035 60.3761 629.78 53.8673 623.986 48.7079C618.191 43.5484 611.286 40.9687 603.269 40.9687C595.331 40.9687 588.505 43.7866 582.79 49.4222C577.472 54.661 574.455 60.9318 573.741 68.2343H633.749Z" fill="#1C7F7E"/>
<path d="M718 105.62H714.071V87.0464C710.896 93.0789 706.649 97.7621 701.331 101.096C696.013 104.35 689.98 105.978 683.233 105.978C673.867 105.978 665.771 102.564 658.944 95.738C652.118 88.9117 648.705 80.8154 648.705 71.449C648.705 61.9239 652.078 53.7879 658.825 47.041C665.572 40.2941 673.708 36.9206 683.233 36.9206C692.52 36.9206 700.617 40.2941 707.522 47.041C714.507 53.7086 718 61.8446 718 71.449V105.62ZM713.714 71.449C713.714 63.0352 710.737 55.8517 704.784 49.8985C698.831 43.9453 691.647 40.9687 683.233 40.9687C674.82 40.9687 667.636 43.9453 661.683 49.8985C655.73 55.8517 652.753 63.0352 652.753 71.449C652.753 79.7835 655.73 86.9273 661.683 92.8805C667.636 98.8337 674.82 101.81 683.233 101.81C691.647 101.81 698.831 98.8734 704.784 92.9996C710.737 87.1258 713.714 79.9422 713.714 71.449Z" fill="#1C7F7E"/>
<path d="M329.177 105.592C329.177 116.672 325.372 126.184 317.762 134.13C310.264 142.076 301.031 146.049 290.063 146.049H269.415V214.373H262.7V74.8716C262.7 73.4167 262.756 72.2976 262.868 71.5142C263.092 70.6189 263.484 69.8355 264.043 69.164C264.715 68.3806 265.554 67.877 266.561 67.6532C267.568 67.4293 268.632 67.3174 269.751 67.3174H289.895C300.527 67.3174 309.704 71.0665 317.426 78.5648C325.26 85.9511 329.177 94.9602 329.177 105.592ZM322.798 106.264C322.798 97.0866 319.385 89.3086 312.558 82.9295C305.843 76.5503 297.785 73.3608 288.385 73.3608H269.751V140.006H289.895C299.072 140.006 306.85 136.704 313.229 130.101C319.609 123.498 322.798 115.552 322.798 106.264Z" fill="#1C7F7E"/>
<path d="M357.086 214.541H350.707L350.875 67.3174H357.086V214.541Z" fill="#1C7F7E"/>
<path d="M476.344 168.04H385.358C385.358 179.344 389.611 189.024 398.116 197.082C406.733 205.028 416.918 209.001 428.669 209.001C438.629 209.001 447.246 206.147 454.521 200.439C461.795 194.732 466.72 187.01 469.294 177.273H475.001C472.427 188.577 466.999 197.698 458.718 204.636C450.548 211.463 440.699 214.876 429.172 214.876C415.519 214.876 403.768 210.064 393.919 200.439C384.183 190.703 379.314 179.064 379.314 165.522C379.314 152.54 384.071 141.349 393.583 131.948C403.096 122.547 414.4 117.847 427.494 117.847C441.371 117.847 452.954 122.771 462.243 132.619C471.644 142.356 476.344 154.163 476.344 168.04ZM469.965 162.165C468.958 151.085 464.369 141.908 456.2 134.634C448.03 127.359 438.293 123.722 426.99 123.722C415.798 123.722 406.174 127.695 398.116 135.641C390.618 143.027 386.365 151.869 385.358 162.165H469.965Z" fill="#1C7F7E"/>
<path d="M560.043 214.541H554.503V153.435C554.503 145.042 551.761 138.103 546.277 132.619C540.905 127.024 534.302 124.226 526.468 124.226C518.41 124.226 511.472 127.192 505.652 133.123C499.945 138.943 497.091 145.881 497.091 153.939V214.541H491.215V152.764C491.215 143.251 494.797 135.137 501.959 128.423C509.233 121.596 517.739 118.182 527.476 118.182C536.317 118.182 543.927 121.316 550.306 127.583C556.797 133.739 560.043 140.957 560.043 149.239V214.541Z" fill="#1C7F7E"/>
<path d="M645.245 184.66C645.245 192.829 642 200.048 635.509 206.315C629.018 212.582 621.408 215.716 612.678 215.716C602.942 215.716 594.436 212.358 587.162 205.644C579.999 198.817 576.418 190.647 576.418 181.134V119.358H582.294V179.791C582.294 187.961 585.147 194.956 590.855 200.775C596.563 206.595 603.501 209.505 611.671 209.505C619.505 209.505 626.108 206.763 631.48 201.279C636.964 195.683 639.706 188.688 639.706 180.295V119.358H645.245V184.66Z" fill="#1C7F7E"/>
<path d="M710.935 188.185C710.935 195.683 708.529 202.062 703.717 207.322C699.016 212.582 692.917 215.212 685.419 215.212C681.726 215.212 677.641 214.429 673.164 212.862C667.233 210.736 663.092 208.721 660.742 206.819V199.264C661.525 200.272 664.267 201.894 668.967 204.133C674.787 206.931 679.767 208.329 683.908 208.329C689.727 208.329 694.54 206.315 698.345 202.286C702.15 198.257 704.052 193.389 704.052 187.681C704.052 183.428 702.71 179.847 700.024 176.937C697.45 173.916 693.924 171.51 689.448 169.719L675.682 164.179C665.61 160.262 660.574 152.876 660.574 142.02C660.574 135.082 662.98 129.374 667.792 124.897C672.605 120.421 678.928 118.182 686.762 118.182C689.895 118.182 694.54 119.134 700.695 121.036C702.71 121.596 705.507 122.547 709.089 123.89V131.276C705.395 129.71 702.486 128.535 700.359 127.751C693.756 125.289 689.168 124.058 686.594 124.058C681.446 124.058 676.913 125.793 672.996 129.262C669.191 132.619 667.289 136.816 667.289 141.852C667.289 145.657 668.296 148.903 670.31 151.589C672.437 154.163 675.402 156.177 679.208 157.632L692.302 163.004C698.121 165.242 702.654 168.544 705.899 172.909C709.257 177.161 710.935 182.253 710.935 188.185Z" fill="#1C7F7E"/>
<path d="M136.74 164.763C131.09 164.284 125.665 163.463 120.246 162.608C111.912 161.294 103.711 159.34 95.5151 157.379C88.524 155.707 81.684 153.468 74.9191 151.072C63.5652 147.051 52.5048 142.345 42.0426 136.283C35.1654 132.299 28.8541 127.576 22.7768 122.504C15.3961 116.343 8.89096 109.42 4.42408 100.808C0.184123 92.6336 -1.54615 84.1075 1.648 75.1494C2.69784 72.2051 4.26824 69.4527 6.10098 66.8871C11.02 60.0013 17.7333 55.2884 25.1474 51.547C33.0077 47.5803 41.438 45.1881 49.976 43.1525C56.2776 41.65 62.5819 40.2166 69.0945 39.9922C69.8872 39.9649 70.6556 39.7643 71.2785 40.5219C71.1447 41.6021 70.2334 41.7296 69.4469 41.9531C65.3607 43.1141 61.2191 44.1034 57.1878 45.4293C48.0139 48.4465 39.5925 52.8579 32.6809 59.7404C28.3282 64.0749 25.1702 69.279 23.9861 75.2918C22.9313 80.6481 23.5094 86.0221 25.5113 91.2654C28.9682 100.32 34.8855 107.514 41.8767 113.974C52.0341 123.359 63.8498 130.102 76.3182 135.893C87.2023 140.949 98.479 144.864 109.973 148.193C117.318 150.321 124.801 151.9 132.303 153.388C137.562 154.431 142.845 155.309 148.154 156.009C155.29 156.949 162.474 157.175 169.669 157.351C177.726 157.548 185.775 157.395 193.798 156.883C205.709 156.123 217.398 153.979 228.684 149.952C231.828 148.83 234.813 147.342 237.798 145.858C238.541 145.489 239.256 144.995 240.229 144.978C241.078 146.63 239.859 147.376 238.833 148.098C234.807 150.931 230.493 153.277 226.021 155.309C217.46 159.2 208.477 161.678 199.227 163.319C194.009 164.244 188.759 164.875 183.505 165.504C182.403 165.635 181.68 165.993 181.333 167.101C179.388 173.318 176.277 179.008 173.13 184.656C169.026 192.021 164.92 199.423 159.502 205.929C156.051 210.073 151.833 213.409 146.887 215.694C142.341 217.794 138.295 216.137 134.496 213.717C130 210.852 126.762 206.833 123.945 202.299C120.6 196.917 118.096 191.24 116.294 185.205C115.629 182.978 116.126 182.021 118.455 181.641C120.355 181.331 122.284 181.193 124.213 180.977C124.105 180.015 123.436 179.948 122.908 179.826C117.871 178.654 113.327 179.503 109.374 183.035C104.647 187.259 101.041 192.39 97.2911 197.436C94.2222 201.565 91.4203 205.921 87.4449 209.351C85.0541 211.414 82.4839 212.998 79.4624 213.745C76.317 214.523 74.1007 212.688 72.4377 210.436C65.8083 201.462 61.2009 191.448 57.7068 180.895C55.4926 174.208 53.2744 167.522 51.0939 160.823C49.44 155.742 47.8314 150.646 46.2348 145.547C46.0431 144.935 45.9931 144.26 45.9835 143.613C45.9707 142.741 46.3904 142.235 47.3402 142.452C48.04 142.612 48.7651 142.737 49.4165 143.021C52.2878 144.272 55.1577 145.531 57.987 146.873C60.4287 148.031 61.5247 150.005 61.9186 152.734C62.8239 159.006 64.4752 165.138 66.2695 171.207C68.5264 178.84 71.1163 186.37 74.4803 193.606C75.0593 194.851 75.5999 196.117 76.2363 197.332C79.468 203.505 82.8667 202.831 86.9918 198.892C90.086 195.937 92.2383 192.212 94.5097 188.624C96.9638 184.748 99.4981 180.938 102.607 177.555C106.344 173.488 110.678 170.703 116.552 171.401C123.047 172.173 126.705 176.271 129.026 181.953C130.558 185.702 131.161 189.748 132.6 193.513C134.132 197.522 135.582 201.651 139.007 204.58C141.88 207.037 144.979 207.056 147.901 204.653C149.839 203.058 151.458 201.147 152.755 199.021C158.425 189.733 163.075 179.965 166.324 169.558C166.573 168.759 166.806 167.939 166.6 166.943C156.727 165.954 146.75 166.301 136.74 164.763Z" fill="#1C7F7E"/>
<path d="M159.302 75.92C152.774 81.063 145.03 82.8346 137.421 84.9614C129.109 87.2845 120.607 88.2066 112.025 88.4498C106.151 88.6162 100.469 87.4432 94.918 85.5152C88.4114 83.2553 81.7855 81.5352 74.8142 81.5928C67.276 81.655 62.0675 85.3344 59.4141 92.4066C57.1446 98.4552 56.9307 104.771 56.7673 111.109C56.7351 112.357 57.2867 113.955 55.8368 114.669C54.2882 115.431 53.2392 114.011 52.2989 113.142C48.7546 109.863 45.1274 106.655 42.084 102.877C41.2107 101.793 40.5895 100.552 40.5193 99.1371C40.2718 94.1537 40.6207 89.1846 41.9918 84.4018C45.2976 72.8697 52.9456 65.7773 65.8503 64.9455C71.7401 64.5659 77.421 65.9999 83.139 67.048C89.5653 68.2259 95.882 69.9222 102.32 71.0744C107.34 71.9728 112.384 72.6834 117.416 73.489C122.243 74.2616 126.941 73.2611 131.597 72.3329C139.588 70.7399 146.804 66.8721 154.4 64.113C159.711 62.184 165.094 60.3906 170.7 60.0249C179.055 59.48 186.918 61.7974 191.938 70.1306C196.124 77.0795 197.563 84.6558 197.742 92.591C197.8 95.1431 197.671 97.7007 197.767 100.251C197.92 104.327 197.469 108.338 196.75 112.336C195.732 117.997 194.928 123.703 193.685 129.313C192.358 135.297 190.531 141.165 188.571 146.978C187.945 148.836 187.639 150.786 186.786 152.581C186.241 153.728 185.466 154.223 184.205 154.298C181.198 154.477 178.204 154.635 175.19 154.312C172.406 154.015 172.06 153.546 172.561 150.868C173.69 144.821 175.84 139.049 177.241 133.074C179.183 124.798 180.817 116.427 181.607 108.006C182.285 100.774 182.977 93.4172 181.543 86.1043C180.235 79.4395 175.962 75.7469 169.199 75.5483C165.931 75.4523 162.678 75.142 159.302 75.92Z" fill="#A9CE50"/>
<path d="M128.313 60.4246C123.67 63.147 119.301 65.9927 115.472 69.6205C114.268 70.7608 112.921 70.1464 112.394 68.5458C109.667 60.2566 105.875 52.4992 101.205 45.1055C95.4505 35.9956 87.4036 29.3093 78.9396 22.9897C74.6245 19.7678 70.6049 16.2553 67.4887 11.7982C65.7045 9.24612 66.0729 8.46517 69.1976 7.90577C72.8578 7.25048 76.5124 6.52399 80.1215 5.634C84.0374 4.66837 87.3984 2.42468 90.9094 0.54584C93.0555 -0.602644 94.1627 0.0757043 94.4754 2.44418C95.1888 7.84799 96.4713 13.1206 98.0942 18.339C100.595 26.3816 104.343 33.8366 108.332 41.1916C109.972 44.2147 111.788 47.142 113.511 50.0917C114.501 49.8632 114.507 49.1649 114.643 48.5437C115.381 45.1643 116.21 41.8103 117.293 38.5201C120.539 28.6525 127.418 22.64 137.182 19.6195C144.278 17.4242 151.673 16.7879 158.914 15.3516C165.553 14.0348 172.009 12.2524 177.819 8.61506C179.736 7.41513 181.251 5.8066 182.72 4.12743C183.184 3.59695 183.733 2.90132 184.507 3.14984C185.349 3.41999 185.185 4.31606 185.202 5.01986C185.388 12.6997 184.19 20.1285 180.859 27.0968C176.857 35.4709 170.227 41.1997 162.071 45.3351C153.315 49.7748 143.994 52.9023 135.084 56.9812C132.826 58.0145 130.647 59.2173 128.313 60.4246Z" fill="#1C7F7E"/>
</svg>
