<svg width="570" height="584" viewBox="0 0 570 584" fill="none" xmlns="http://www.w3.org/2000/svg">
<path d="M305.96 210.08C298.898 209.469 292.118 208.422 285.344 207.333C274.928 205.657 264.678 203.165 254.434 200.666C245.697 198.533 237.148 195.678 228.692 192.623C214.502 187.496 200.678 181.496 187.602 173.767C179.006 168.687 171.118 162.665 163.522 156.197C154.297 148.342 146.167 139.515 140.584 128.535C135.285 118.112 133.122 107.241 137.114 95.8188C138.426 92.0646 140.389 88.5551 142.68 85.284C148.828 76.5043 157.219 70.4951 166.485 65.7246C176.309 60.667 186.846 57.6168 197.517 55.0213C205.393 53.1056 213.273 51.2779 221.413 50.9918C222.403 50.9569 223.364 50.7013 224.142 51.6672C223.975 53.0445 222.836 53.2071 221.853 53.492C216.746 54.9723 211.569 56.2337 206.531 57.9243C195.065 61.7714 184.539 67.3961 175.901 76.1717C170.461 81.6983 166.514 88.3337 165.034 96.0003C163.715 102.83 164.438 109.682 166.94 116.367C171.26 127.912 178.656 137.085 187.394 145.321C200.09 157.288 214.857 165.885 230.441 173.27C244.045 179.716 258.139 184.708 272.505 188.953C281.685 191.666 291.037 193.679 300.415 195.576C306.987 196.906 313.59 198.025 320.226 198.918C329.145 200.117 338.123 200.405 347.117 200.629C357.186 200.88 367.246 200.686 377.273 200.033C392.16 199.064 406.771 196.33 420.876 191.195C424.805 189.765 428.536 187.868 432.267 185.975C433.196 185.504 434.09 184.874 435.306 184.853C436.367 186.959 434.843 187.911 433.561 188.831C428.529 192.443 423.137 195.434 417.548 198.026C406.848 202.987 395.621 206.147 384.06 208.239C377.537 209.419 370.976 210.223 364.409 211.024C363.032 211.192 362.128 211.648 361.695 213.061C359.264 220.989 355.375 228.243 351.442 235.444C346.312 244.836 341.18 254.273 334.408 262.569C330.096 267.853 324.824 272.106 318.642 275.019C312.96 277.697 307.903 275.584 303.155 272.498C297.536 268.846 293.488 263.721 289.967 257.94C285.787 251.078 282.658 243.839 280.405 236.144C279.574 233.305 280.195 232.085 283.107 231.6C285.481 231.205 287.891 231.029 290.303 230.754C290.168 229.527 289.331 229.442 288.671 229.285C282.376 227.792 276.697 228.874 271.756 233.378C265.847 238.763 261.342 245.306 256.654 251.74C252.819 257.004 249.317 262.558 244.348 266.932C241.36 269.562 238.147 271.582 234.371 272.534C230.44 273.526 227.67 271.186 225.591 268.316C217.305 256.872 211.547 244.105 207.18 230.649C204.412 222.122 201.64 213.597 198.914 205.056C196.847 198.578 194.837 192.08 192.841 185.578C192.602 184.798 192.539 183.938 192.527 183.113C192.511 182.001 193.036 181.356 194.223 181.633C195.098 181.837 196.004 181.996 196.818 182.358C200.407 183.953 203.994 185.558 207.53 187.269C210.582 188.746 211.951 191.262 212.444 194.742C213.575 202.739 215.639 210.559 217.882 218.296C220.703 228.029 223.94 237.629 228.144 246.856C228.868 248.444 229.543 250.058 230.339 251.608C234.378 259.477 238.626 258.618 243.782 253.596C247.649 249.828 250.339 245.079 253.178 240.504C256.245 235.562 259.413 230.704 263.298 226.391C267.969 221.205 273.387 217.654 280.728 218.544C288.845 219.528 293.417 224.754 296.319 231.998C298.234 236.778 298.987 241.937 300.785 246.738C302.7 251.849 304.512 257.114 308.793 260.849C312.384 263.982 316.257 264.006 319.909 260.941C322.331 258.908 324.355 256.471 325.977 253.76C333.063 241.917 338.875 229.463 342.935 216.194C343.247 215.175 343.538 214.129 343.28 212.859C330.94 211.598 318.471 212.041 305.96 210.08Z" fill="#1C7F7E"/>
<path d="M334.159 96.8013C326 103.359 316.321 105.618 306.81 108.33C296.422 111.291 285.796 112.467 275.069 112.777C267.728 112.989 260.626 111.494 253.688 109.036C245.556 106.154 237.274 103.961 228.561 104.034C219.14 104.114 212.63 108.805 209.313 117.822C206.477 125.535 206.21 133.587 206.005 141.669C205.965 143.26 206.654 145.298 204.842 146.208C202.907 147.18 201.596 145.37 200.421 144.261C195.991 140.081 191.457 135.989 187.653 131.172C186.562 129.79 185.786 128.208 185.698 126.404C185.388 120.05 185.824 113.714 187.538 107.616C191.67 92.912 201.229 83.869 217.358 82.8084C224.719 82.3243 231.819 84.1527 238.966 85.4891C246.998 86.991 254.893 89.1539 262.939 90.6229C269.214 91.7685 275.519 92.6745 281.808 93.7016C287.84 94.6868 293.713 93.4111 299.531 92.2277C309.519 90.1964 318.538 85.2649 328.032 81.7468C334.67 79.2874 341.397 77.0006 348.405 76.5343C358.847 75.8396 368.675 78.7944 374.949 89.4195C380.18 98.2797 381.979 107.94 382.203 118.058C382.275 121.312 382.115 124.573 382.234 127.824C382.425 133.022 381.862 138.136 380.964 143.234C379.691 150.451 378.687 157.727 377.132 164.88C375.474 172.51 373.19 179.991 370.741 187.404C369.959 189.772 369.576 192.259 368.51 194.547C367.829 196.01 366.86 196.64 365.284 196.736C361.525 196.965 357.784 197.166 354.017 196.755C350.537 196.375 350.105 195.778 350.73 192.363C352.142 184.652 354.829 177.293 356.58 169.676C359.007 159.123 361.05 148.45 362.036 137.712C362.884 128.492 363.75 119.111 361.957 109.787C360.323 101.289 354.982 96.5806 346.529 96.3273C342.444 96.2049 338.378 95.8093 334.159 96.8013Z" fill="#A9CE50"/>
<path d="M295.427 77.044C289.624 80.5151 284.163 84.1436 279.378 88.7692C277.873 90.2232 276.189 89.4397 275.531 87.3988C272.122 76.8297 267.382 66.9388 261.545 57.5115C254.354 45.8959 244.296 37.3706 233.718 29.3128C228.324 25.2048 223.3 20.7262 219.406 15.0432C217.175 11.7892 217.636 10.7935 221.541 10.0802C226.116 9.24468 230.684 8.31837 235.195 7.1836C240.089 5.95238 244.29 3.09157 248.678 0.69597C251.36 -0.768397 252.744 0.0965264 253.135 3.11644C254.027 10.0065 255.63 16.7294 257.658 23.383C260.784 33.6377 265.469 43.1431 270.454 52.5211C272.503 56.3757 274.773 60.1081 276.926 63.8691C278.164 63.5777 278.172 62.6874 278.341 61.8954C279.264 57.5865 280.3 53.31 281.653 49.1148C285.711 36.5332 294.309 28.867 306.512 25.0157C315.38 22.2166 324.623 21.4053 333.674 19.574C341.972 17.895 350.041 15.6223 357.302 10.9846C359.698 9.45462 361.592 7.40367 363.428 5.26265C364.008 4.58627 364.694 3.69931 365.662 4.01618C366.714 4.36064 366.508 5.50316 366.53 6.40055C366.762 16.1926 365.265 25.6647 361.102 34.5496C356.1 45.227 347.814 52.5314 337.62 57.8042C326.675 63.4651 315.026 67.4528 303.889 72.6535C301.068 73.971 298.344 75.5047 295.427 77.044Z" fill="#1C7F7E"/>
<path d="M32.7889 334.851H29.1543C28.8836 333.471 28.3938 332.195 27.6849 331.025C26.989 329.842 26.1125 328.809 25.0557 327.928C23.9988 327.047 22.8001 326.364 21.4597 325.877C20.1193 325.391 18.6693 325.148 17.1098 325.148C14.6094 325.148 12.3281 325.812 10.2659 327.14C8.21657 328.468 6.57325 330.42 5.33593 332.997C4.1115 335.561 3.49929 338.704 3.49929 342.425C3.49929 346.172 4.1115 349.328 5.33593 351.892C6.57325 354.455 8.21657 356.401 10.2659 357.729C12.3281 359.044 14.6094 359.702 17.1098 359.702C18.6693 359.702 20.1193 359.458 21.4597 358.972C22.8001 358.485 23.9988 357.808 25.0557 356.94C26.1125 356.06 26.989 355.027 27.6849 353.844C28.3938 352.661 28.8836 351.379 29.1543 349.998H32.7889C32.4667 351.852 31.8609 353.581 30.9716 355.185C30.0952 356.776 28.9738 358.17 27.6076 359.366C26.2543 360.563 24.6948 361.496 22.929 362.167C21.1633 362.838 19.2235 363.173 17.1098 363.173C13.7845 363.173 10.833 362.325 8.25523 360.629C5.67749 358.919 3.65396 356.513 2.18464 353.41C0.728218 350.307 0 346.645 0 342.425C0 338.204 0.728218 334.542 2.18464 331.439C3.65396 328.336 5.67749 325.936 8.25523 324.24C10.833 322.531 13.7845 321.676 17.1098 321.676C19.2235 321.676 21.1633 322.012 22.929 322.682C24.6948 323.34 26.2543 324.273 27.6076 325.483C28.9738 326.679 30.0952 328.073 30.9716 329.664C31.8609 331.255 32.4667 332.984 32.7889 334.851Z" fill="#1C7F7E"/>
<path d="M44.0069 322.229V362.621H40.5656V322.229H44.0069Z" fill="#1C7F7E"/>
<path d="M53.1515 362.621V332.327H56.6121V362.621H53.1515ZM53.3061 328.126L58.2554 319.172H62.3347L56.3994 328.126H53.3061Z" fill="#1C7F7E"/>
<path d="M69.1544 343.687V362.621H65.7131V332.327H69.0578V337.08H69.3671C70.0631 335.528 71.1457 334.286 72.615 333.352C74.0972 332.405 75.9274 331.932 78.1056 331.932C80.1034 331.932 81.8563 332.359 83.3642 333.214C84.8851 334.056 86.0644 335.298 86.9022 336.942C87.7528 338.585 88.1781 340.604 88.1781 342.997V362.621H84.7369V343.214C84.7369 340.728 84.0538 338.763 82.6876 337.316C81.3342 335.87 79.5169 335.147 77.2356 335.147C75.6761 335.147 74.2905 335.489 73.079 336.172C71.8675 336.856 70.9073 337.842 70.1984 339.131C69.5024 340.406 69.1544 341.925 69.1544 343.687Z" fill="#1C7F7E"/>
<path d="M97.2792 362.621V332.327H100.74V362.621H97.2792ZM99.0385 327.12C98.3296 327.12 97.7239 326.877 97.2212 326.39C96.7186 325.89 96.4672 325.292 96.4672 324.595C96.4672 323.898 96.7186 323.307 97.2212 322.82C97.7239 322.321 98.3296 322.071 99.0385 322.071C99.7474 322.071 100.353 322.321 100.856 322.82C101.358 323.307 101.61 323.898 101.61 324.595C101.61 325.292 101.358 325.89 100.856 326.39C100.353 326.877 99.7474 327.12 99.0385 327.12Z" fill="#1C7F7E"/>
<path d="M121.441 363.252C118.786 363.252 116.472 362.575 114.5 361.22C112.541 359.866 111.02 358.012 109.938 355.659C108.855 353.305 108.314 350.623 108.314 347.612C108.314 344.574 108.861 341.872 109.957 339.506C111.065 337.139 112.599 335.285 114.558 333.944C116.517 332.59 118.792 331.912 121.383 331.912C123.368 331.912 125.166 332.307 126.777 333.096C128.388 333.872 129.715 334.969 130.759 336.389C131.816 337.796 132.48 339.44 132.751 341.32H129.271C128.91 339.611 128.04 338.151 126.661 336.942C125.294 335.719 123.554 335.108 121.441 335.108C119.546 335.108 117.871 335.633 116.414 336.685C114.958 337.724 113.817 339.177 112.992 341.044C112.18 342.898 111.774 345.048 111.774 347.493C111.774 349.952 112.174 352.128 112.973 354.022C113.772 355.902 114.893 357.374 116.337 358.439C117.793 359.504 119.494 360.037 121.441 360.037C122.755 360.037 123.954 359.787 125.037 359.288C126.132 358.775 127.047 358.052 127.782 357.118C128.529 356.185 129.032 355.073 129.29 353.785H132.77C132.512 355.613 131.874 357.243 130.856 358.676C129.851 360.096 128.542 361.214 126.931 362.029C125.333 362.844 123.503 363.252 121.441 363.252Z" fill="#1C7F7E"/>
<path d="M148.439 363.311C146.648 363.311 145.011 362.956 143.529 362.246C142.047 361.523 140.867 360.484 139.991 359.13C139.114 357.762 138.676 356.106 138.676 354.16C138.676 352.661 138.953 351.398 139.507 350.373C140.062 349.347 140.848 348.506 141.866 347.848C142.884 347.191 144.089 346.672 145.481 346.29C146.873 345.909 148.407 345.613 150.083 345.403C151.745 345.192 153.15 345.008 154.297 344.85C155.457 344.693 156.34 344.443 156.946 344.101C157.552 343.759 157.855 343.207 157.855 342.444V341.734C157.855 339.67 157.249 338.046 156.037 336.863C154.839 335.666 153.111 335.068 150.856 335.068C148.716 335.068 146.97 335.548 145.617 336.508C144.276 337.468 143.335 338.598 142.794 339.9L139.527 338.697C140.197 337.04 141.125 335.719 142.311 334.733C143.497 333.733 144.824 333.017 146.293 332.583C147.763 332.136 149.251 331.912 150.759 331.912C151.894 331.912 153.073 332.064 154.297 332.366C155.535 332.668 156.682 333.194 157.739 333.944C158.795 334.68 159.653 335.712 160.31 337.04C160.967 338.355 161.296 340.025 161.296 342.05V362.621H157.855V357.828H157.642C157.229 358.722 156.617 359.59 155.805 360.431C154.993 361.273 153.975 361.963 152.751 362.502C151.526 363.041 150.089 363.311 148.439 363.311ZM148.903 360.096C150.734 360.096 152.319 359.682 153.659 358.854C155 358.025 156.031 356.927 156.753 355.56C157.487 354.179 157.855 352.661 157.855 351.004V346.626C157.597 346.875 157.165 347.099 156.559 347.296C155.966 347.493 155.277 347.671 154.491 347.829C153.717 347.973 152.944 348.098 152.171 348.203C151.397 348.309 150.701 348.401 150.083 348.479C148.407 348.69 146.976 349.019 145.791 349.466C144.605 349.913 143.696 350.531 143.065 351.32C142.433 352.095 142.117 353.095 142.117 354.317C142.117 356.158 142.762 357.585 144.051 358.597C145.34 359.597 146.957 360.096 148.903 360.096Z" fill="#1C7F7E"/>
<path d="M249.518 443.168H244.161L233.446 411.743H173.624L163.951 443.168H158.445L199.666 313.369C200.162 311.851 200.509 310.89 200.707 310.485C201.203 309.675 201.997 309.169 203.088 308.967C204.18 308.866 205.023 309.321 205.618 310.333C206.213 311.244 206.759 312.61 207.255 314.432L249.518 443.168ZM231.66 406.278L203.237 317.62L175.409 406.278H231.66Z" fill="#1C7F7E"/>
<path d="M324.708 416.297C324.708 423.686 321.831 430.213 316.077 435.881C310.323 441.549 303.577 444.383 295.838 444.383C287.207 444.383 279.667 441.346 273.219 435.274C266.87 429.1 263.695 421.712 263.695 413.109V357.243H268.903V411.895C268.903 419.283 271.433 425.609 276.493 430.871C281.552 436.134 287.703 438.766 294.945 438.766C301.89 438.766 307.743 436.286 312.505 431.327C317.367 426.266 319.797 419.941 319.797 412.35V357.243H324.708V416.297Z" fill="#1C7F7E"/>
<path d="M368.509 363.012C368.211 362.91 367.517 362.86 366.425 362.86C363.548 362.86 360.919 363.265 358.538 364.074C354.967 365.289 352.189 367.161 350.205 369.691C348.32 372.222 346.98 374.701 346.187 377.13C345.492 379.458 345.145 382.089 345.145 385.024V443.168H339.788V383.203C339.788 380.166 340.433 376.928 341.722 373.487C343.012 370.046 344.996 367.009 347.675 364.378C350.453 361.747 354.024 359.874 358.389 358.761C362.854 357.546 366.227 357.04 368.509 357.243V363.012Z" fill="#1C7F7E"/>
<path d="M469.857 401.268H389.201C389.201 411.49 392.971 420.245 400.511 427.531C408.15 434.717 417.178 438.31 427.594 438.31C436.424 438.31 444.063 435.729 450.512 430.568C456.96 425.406 461.325 418.423 463.607 409.618H468.667C466.385 419.84 461.573 428.088 454.232 434.363C446.99 440.537 438.259 443.623 428.041 443.623C415.937 443.623 405.521 439.272 396.79 430.568C388.159 421.763 383.844 411.237 383.844 398.991C383.844 387.251 388.06 377.13 396.493 368.629C404.925 360.127 414.945 355.877 426.553 355.877C438.855 355.877 449.123 360.33 457.357 369.236C465.69 378.041 469.857 388.718 469.857 401.268ZM464.202 395.955C463.309 385.935 459.242 377.636 452 371.058C444.757 364.479 436.126 361.19 426.106 361.19C416.186 361.19 407.654 364.783 400.511 371.969C393.864 378.648 390.094 386.644 389.201 395.955H464.202Z" fill="#1C7F7E"/>
<path d="M569.504 443.623H564.593V419.941C560.624 427.633 555.317 433.604 548.67 437.855C542.023 442.004 534.483 444.079 526.05 444.079C514.344 444.079 504.225 439.727 495.693 431.023C487.161 422.319 482.895 411.996 482.895 400.054C482.895 387.909 487.111 377.535 495.544 368.932C503.977 360.33 514.145 356.028 526.05 356.028C537.658 356.028 547.777 360.33 556.408 368.932C565.138 377.434 569.504 387.808 569.504 400.054V443.623ZM564.146 400.054C564.146 389.326 560.426 380.166 552.985 372.576C545.545 364.985 536.566 361.19 526.05 361.19C515.534 361.19 506.556 364.985 499.115 372.576C491.675 380.166 487.954 389.326 487.954 400.054C487.954 410.68 491.675 419.789 499.115 427.38C506.556 434.97 515.534 438.766 526.05 438.766C536.566 438.766 545.545 435.021 552.985 427.531C560.426 420.042 564.146 410.883 564.146 400.054Z" fill="#1C7F7E"/>
<path d="M83.5318 443.587C83.5318 457.714 78.776 469.844 69.2644 479.975C59.8926 490.106 48.3528 495.172 34.6449 495.172H8.83768V582.288H0.445084V404.418C0.445084 402.563 0.515031 401.136 0.654908 400.137C0.934661 398.995 1.42423 397.996 2.12361 397.14C2.96287 396.141 4.01193 395.499 5.27082 395.214C6.52971 394.928 7.85854 394.786 9.2573 394.786H34.4351C47.7234 394.786 59.1932 399.566 68.8447 409.126C78.6361 418.544 83.5318 430.031 83.5318 443.587ZM75.5588 444.444C75.5588 432.743 71.2926 422.825 62.7601 414.692C54.3675 406.558 44.2964 402.491 32.5468 402.491H9.2573V487.466H34.4351C45.905 487.466 55.6264 483.257 63.5994 474.838C71.5723 466.419 75.5588 456.287 75.5588 444.444Z" fill="#1C7F7E"/>
<path d="M118.413 582.502H110.441L110.65 394.786H118.413V582.502Z" fill="#1C7F7E"/>
<path d="M267.469 523.212H153.749C153.749 537.624 159.065 549.967 169.695 560.241C180.466 570.373 193.194 575.438 207.881 575.438C220.33 575.438 231.101 571.799 240.193 564.522C249.285 557.245 255.44 547.399 258.657 534.984H265.79C262.573 549.396 255.789 561.026 245.438 569.873C235.227 578.578 222.918 582.93 208.511 582.93C191.446 582.93 176.759 576.794 164.45 564.522C152.281 552.108 146.196 537.267 146.196 520.001C146.196 503.448 152.141 489.179 164.03 477.192C175.92 465.206 190.047 459.213 206.413 459.213C223.757 459.213 238.235 465.491 249.844 478.048C261.594 490.463 267.469 505.517 267.469 523.212ZM259.496 515.72C258.237 501.593 252.502 489.892 242.291 480.617C232.08 471.342 219.911 466.704 205.783 466.704C191.796 466.704 179.766 471.77 169.695 481.901C160.323 491.319 155.008 502.592 153.749 515.72H259.496Z" fill="#1C7F7E"/>
<path d="M372.08 582.502H365.156V504.59C365.156 493.888 361.729 485.041 354.875 478.048C348.161 470.914 339.908 467.346 330.117 467.346C320.046 467.346 311.373 471.128 304.1 478.691C296.966 486.111 293.399 494.958 293.399 505.232V582.502H286.056V503.734C286.056 491.605 290.532 481.259 299.484 472.697C308.576 463.993 319.206 459.641 331.376 459.641C342.426 459.641 351.938 463.636 359.911 471.627C368.023 479.475 372.08 488.679 372.08 499.239V582.502Z" fill="#1C7F7E"/>
<path d="M478.571 544.402C478.571 554.819 474.514 564.023 466.402 572.014C458.289 580.004 448.777 584 437.867 584C425.698 584 415.067 579.719 405.975 571.157C397.023 562.453 392.547 552.036 392.547 539.907V461.139H399.89V538.195C399.89 548.611 403.457 557.53 410.591 564.95C417.725 572.37 426.397 576.08 436.608 576.08C446.399 576.08 454.652 572.584 461.366 565.592C468.22 558.457 471.647 549.539 471.647 538.837V461.139H478.571V544.402Z" fill="#1C7F7E"/>
<path d="M560.674 548.897C560.674 558.457 557.666 566.591 551.652 573.298C545.777 580.005 538.154 583.358 528.782 583.358C524.166 583.358 519.06 582.359 513.465 580.361C506.052 577.65 500.876 575.081 497.939 572.656V563.024C498.918 564.308 502.345 566.377 508.22 569.231C515.493 572.798 521.718 574.582 526.893 574.582C534.167 574.582 540.182 572.014 544.938 566.877C549.693 561.739 552.071 555.532 552.071 548.255C552.071 542.832 550.393 538.266 547.036 534.556C543.819 530.703 539.412 527.635 533.817 525.352L516.612 518.289C504.024 513.294 497.729 503.876 497.729 490.035C497.729 481.188 500.737 473.91 506.751 468.202C512.766 462.495 520.669 459.641 530.46 459.641C534.377 459.641 540.182 460.854 547.875 463.28C550.393 463.993 553.89 465.206 558.366 466.918V476.336C553.75 474.338 550.113 472.84 547.455 471.841C539.203 468.702 533.468 467.132 530.25 467.132C523.816 467.132 518.151 469.344 513.255 473.768C508.5 478.049 506.122 483.4 506.122 489.821C506.122 494.673 507.381 498.811 509.898 502.235C512.556 505.517 516.263 508.086 521.019 509.941L537.384 516.79C544.658 519.644 550.323 523.854 554.379 529.419C558.576 534.841 560.674 541.334 560.674 548.897Z" fill="#1C7F7E"/>
</svg>
